<svg width="180" height="180" viewBox="0 0 180 180" xmlns="http://www.w3.org/2000/svg"><g fill="none" fill-rule="evenodd"><g fill="#272C30"><path d="M36.192 2.768H2.768v33.424h33.424V2.768zM37.96 1H1v36.96h36.96V1z"/><path d="M71.472 38.048H38.048v33.424h33.424V38.048zm1.768-1.768H36.28v36.96h36.96V36.28z"/><path d="M71.472 73.328H38.048v33.424h33.424V73.328zm1.768-1.768H36.28v36.96h36.96V71.56z"/><path d="M106.752 38.048H73.328v33.424h33.424V38.048zm1.768-1.768H71.56v36.96h36.96V36.28zM36.192 38.048H2.768v33.424h33.424V38.048zm1.768-1.768H1v36.96h36.96V36.28z"/><path d="M36.192 73.328H2.768v33.424h33.424V73.328zm1.768-1.768H1v36.96h36.96V71.56z"/><path d="M36.192 108.608H2.768v33.424h33.424v-33.424zm1.768-1.768H1v36.96h36.96v-36.96zM71.472 2.768H38.048v33.424h33.424V2.768zM73.24 1H36.28v36.96h36.96V1z"/><path d="M106.752 2.768H73.328v33.424h33.424V2.768zM108.52 1H71.56v36.96h36.96V1z"/><path d="M142.032 2.768h-33.424v33.424h33.424V2.768zM143.8 1h-36.96v36.96h36.96V1z"/></g><g fill="#272C30"><path d="M144.008 177.432h33.424v-33.424h-33.424v33.424zm-1.768 1.768h36.96v-36.96h-36.96v36.96z"/><path d="M108.728 142.152h33.424v-33.424h-33.424v33.424zm-1.768 1.768h36.96v-36.96h-36.96v36.96z"/><path d="M108.728 106.872h33.424V73.448h-33.424v33.424zm-1.768 1.768h36.96V71.68h-36.96v36.96z"/><path d="M73.448 142.152h33.424v-33.424H73.448v33.424zm-1.768 1.768h36.96v-36.96H71.68v36.96zM144.008 142.152h33.424v-33.424h-33.424v33.424zm-1.768 1.768h36.96v-36.96h-36.96v36.96z"/><path d="M144.008 106.872h33.424V73.448h-33.424v33.424zm-1.768 1.768h36.96V71.68h-36.96v36.96z"/><path d="M144.008 71.592h33.424V38.168h-33.424v33.424zm-1.768 1.768h36.96V36.4h-36.96v36.96zM108.728 177.432h33.424v-33.424h-33.424v33.424zm-1.768 1.768h36.96v-36.96h-36.96v36.96z"/><path d="M73.448 177.432h33.424v-33.424H73.448v33.424zM71.68 179.2h36.96v-36.96H71.68v36.96z"/><path d="M38.168 177.432h33.424v-33.424H38.168v33.424zM36.4 179.2h36.96v-36.96H36.4v36.96z"/></g><path d="M27.297 119.57h90.641l32.321 32.322H60.263l-32.966-32.323zm-.989-2.309h90.954V26.308H26.308v90.953zm125.584-56.997v89.996l-32.322-32.322V27.297l32.322 32.967zM119.57 24H24v95.57l35.305 34.63H154.2V59.307L119.57 24z" fill="#10B981"/></g></svg>