<svg width="202" height="202" viewBox="0 0 202 202" xmlns="http://www.w3.org/2000/svg"><g fill="none" fill-rule="evenodd"><g fill="#272C30"><path d="M36.192 2.768H2.768v33.424h33.424V2.768zM37.96 1H1v36.96h36.96V1z"/><path d="M71.472 38.048H38.048v33.424h33.424V38.048zm1.768-1.768H36.28v36.96h36.96V36.28z"/><path d="M71.472 73.328H38.048v33.424h33.424V73.328zm1.768-1.768H36.28v36.96h36.96V71.56z"/><path d="M106.752 38.048H73.328v33.424h33.424V38.048zm1.768-1.768H71.56v36.96h36.96V36.28zM36.192 38.048H2.768v33.424h33.424V38.048zm1.768-1.768H1v36.96h36.96V36.28z"/><path d="M36.192 73.328H2.768v33.424h33.424V73.328zm1.768-1.768H1v36.96h36.96V71.56z"/><path d="M36.192 108.608H2.768v33.424h33.424v-33.424zm1.768-1.768H1v36.96h36.96v-36.96zM71.472 2.768H38.048v33.424h33.424V2.768zM73.24 1H36.28v36.96h36.96V1z"/><path d="M106.752 2.768H73.328v33.424h33.424V2.768zM108.52 1H71.56v36.96h36.96V1z"/><path d="M142.032 2.768h-33.424v33.424h33.424V2.768zM143.8 1h-36.96v36.96h36.96V1z"/></g><path d="M39.297 131.57h90.641l32.321 32.322H72.263l-32.966-32.323zm-.989-2.309h90.954V38.308H38.308v90.953zm125.584-56.997v89.996l-32.322-32.322V39.297l32.322 32.967zM131.57 36H36v95.57l35.305 34.63H166.2V71.307L131.57 36z" fill="#10B981"/><g fill="#272C30"><path d="M166.008 199.432h33.424v-33.424h-33.424v33.424zm-1.768 1.768h36.96v-36.96h-36.96v36.96z"/><path d="M130.728 164.152h33.424v-33.424h-33.424v33.424zm-1.768 1.768h36.96v-36.96h-36.96v36.96z"/><path d="M130.728 128.872h33.424V95.448h-33.424v33.424zm-1.768 1.768h36.96V93.68h-36.96v36.96z"/><path d="M95.448 164.152h33.424v-33.424H95.448v33.424zm-1.768 1.768h36.96v-36.96H93.68v36.96zM166.008 164.152h33.424v-33.424h-33.424v33.424zm-1.768 1.768h36.96v-36.96h-36.96v36.96z"/><path d="M166.008 128.872h33.424V95.448h-33.424v33.424zm-1.768 1.768h36.96V93.68h-36.96v36.96z"/><path d="M166.008 93.592h33.424V60.168h-33.424v33.424zm-1.768 1.768h36.96V58.4h-36.96v36.96zM130.728 199.432h33.424v-33.424h-33.424v33.424zm-1.768 1.768h36.96v-36.96h-36.96v36.96z"/><path d="M95.448 199.432h33.424v-33.424H95.448v33.424zM93.68 201.2h36.96v-36.96H93.68v36.96z"/><path d="M60.168 199.432h33.424v-33.424H60.168v33.424zM58.4 201.2h36.96v-36.96H58.4v36.96z"/></g></g></svg>