<svg width="171" height="58" viewBox="0 0 171 58" xmlns="http://www.w3.org/2000/svg"><path d="M4.42 40.17l4.806-12.333h12.516l4.851 12.332h9.027L20.016.373c-2.21 1.257-5.24 1.947-8.026 2.671l1.426 3.624L.36 40.17h4.06zm15.835-16.115H10.7l4.755-12.202 4.8 12.202zm28.927 33.76c7.994 0 14.658-3.7 14.658-10.585 0-3.637-1.298-9.669-11.03-9.668-2.325 0-5.094.072-8.48.072-3.42 0-4.87-2.306-3.32-4.38 1.698 1.19 4.803 2.158 6.931 2.161 6.365 0 11.53-4.793 11.53-10.698-.003-4.145-3.419-8.65-7.622-10.055.778-2.516 4.104-3.662 5.742-.55 2.083 3.955 6.974-.039 4.419-3.347-1.093-1.415-2.746-2.168-4.52-2.168-1.47 0-3.022.519-4.408 1.608-1.359 1.069-2.08 2.635-2.344 4.144-.76-.18-2.013-.328-2.797-.33-6.365 0-11.53 4.792-11.53 10.698 0 2.511 1.583 5.963 3.533 7.704-1.408 1.563-3.416 4.251-3.036 6.53.765 4.573 5.09 4.765 10.229 4.761 5.062-.003 14.039-1.03 14.039 5.02 0 5.382-6.09 7.326-11.598 7.185-4.93-.126-7.64-1.803-5.085-6.228 2.177-3.772-5.732-7.251-7.115-2.09-1.676 6.256 4.359 10.217 11.804 10.217zm-1.24-23.878c-2.453 0-4.444-4.13-4.444-9.22 0-5.09 1.99-9.22 4.443-9.22 2.453 0 4.443 4.13 4.443 9.22 0 5.09-1.99 9.22-4.443 9.22zm28.95 6.199c3.962-.004 6.914-1.83 9.199-4.772l-.654-.69c-1.326 1.272-2.85 2.998-6.392 3.001-3.625.003-6.564-4.695-6.564-10.2v-.167H87.33l.471-.004c0-7.985-3.697-12.491-11.745-12.491-6.65 0-12.04 5.668-12.04 12.661 0 6.993 4.586 12.662 12.877 12.662zm5.596-14.74h-9.894c.502-4.529 2.648-7.984 5.805-7.984 4.031 0 4.182 4.82 4.089 7.984zM99.859 40.1V18.87c2.725-1.661 7.696-1.453 7.696 3.423V40.09h8.25V22.101c0-4.377-4.145-7.013-7.703-7.013-4.42 0-6.894 1.507-8.243 2.916v-5.237h-1.388c0 2.216-4.617 3.327-6.931 3.25V40.1h8.319zm32.611.036c5.095 0 7.864-2.757 9.858-5.234l-.654-.69c-1.326 1.273-3.508 3.46-7.051 3.463-3.625.003-6.563-4.698-6.563-10.207s2.293-10.753 5.917-10.753c3.217 0 3.941 2.37 3.242 5.968-.795 4.093 5.281 4.77 5.281.637 0-5.378-3.554-8.52-10.866-8.52-6.65 0-12.04 5.672-12.04 12.668 0 6.996 4.586 12.67 12.876 12.668zm21.786 8.584c1.592-3.496 3.733-8.182 5.926-12.978l.412-.9.619-1.351.411-.9.41-.897c4.027-8.798 7.759-16.937 8.086-17.653h-2.883L159.9 30.139c-3.37-5.706-6.558-11.595-9.856-17.372l-1.245.644c1.15 2.608-2.744 5.144-4.589 6.09 1.06 1.87 2.336 4.13 3.63 6.425l.354.627.882 1.563.35.62.345.614c2.698 4.787 5.021 8.917 5.021 8.917l.78 1.372c-.617 1.354-2.838 6.14-3.374 7.318-2.885 6.34-4.888 7.809-6.554 7.384-.987-.252-2.255-1.942-.173-4.67 3.067-4.02-2.865-7.034-4.933-3.453-2.173 3.764-.055 8.632 4.592 9.644 4.111.894 7.223-2.96 9.126-7.142z" fill="#18202a" fill-rule="nonzero"/></svg>