<svg width="101" height="141" viewBox="0 0 101 141" xmlns="http://www.w3.org/2000/svg"><g fill="#272C30" fill-rule="evenodd"><path d="M2.557 114.136h70.314l25.072 25.074H28.13L2.557 114.136zm-.767-1.79h70.556V41.79H1.79v70.556zM99.21 68.13v69.813L74.136 112.87V42.557L99.21 68.131zM74.136 40H0v74.136L27.387 141H101V67.389L74.136 40z"/><path d="M2.557 74.136h70.314L97.943 99.21H28.13L2.557 74.136zm-.767-1.79h70.556V1.79H1.79v70.556zM99.21 28.13v69.813L74.136 72.87V2.557L99.21 28.131zM74.136 0H0v74.136L27.387 101H101V27.389L74.136 0z"/></g></svg>