<svg width="128" height="142" viewBox="0 0 128 142" xmlns="http://www.w3.org/2000/svg"><g fill="#272C30" fill-rule="evenodd"><path d="M26.137 2.263H2.263v23.874h23.874V2.263zM27.4 1H1v26.4h26.4V1z"/><path d="M51.337 27.463H27.463v23.874h23.874V27.463zM52.6 26.2H26.2v26.4h26.4V26.2z"/><path d="M51.337 52.663H27.463v23.874h23.874V52.663zM52.6 51.4H26.2v26.4h26.4V51.4z"/><path d="M76.537 27.463H52.663v23.874h23.874V27.463zM77.8 26.2H51.4v26.4h26.4V26.2zM26.137 27.463H2.263v23.874h23.874V27.463zM27.4 26.2H1v26.4h26.4V26.2z"/><path d="M26.137 52.663H2.263v23.874h23.874V52.663zM27.4 51.4H1v26.4h26.4V51.4z"/><path d="M26.137 77.863H2.263v23.874h23.874V77.863zM27.4 76.6H1V103h26.4V76.6zM51.337 2.263H27.463v23.874h23.874V2.263zM52.6 1H26.2v26.4h26.4V1z"/><path d="M76.537 2.263H52.663v23.874h23.874V2.263zM77.8 1H51.4v26.4h26.4V1z"/><path d="M101.737 2.263H77.863v23.874h23.874V2.263zM103 1H76.6v26.4H103V1z"/><g><path d="M101.863 139.737h23.874v-23.874h-23.874v23.874zM100.6 141H127v-26.4h-26.4V141z"/><path d="M76.663 114.537h23.874V90.663H76.663v23.874zM75.4 115.8h26.4V89.4H75.4v26.4z"/><path d="M76.663 89.337h23.874V65.463H76.663v23.874zM75.4 90.6h26.4V64.2H75.4v26.4z"/><path d="M51.463 114.537h23.874V90.663H51.463v23.874zM50.2 115.8h26.4V89.4H50.2v26.4zM101.863 114.537h23.874V90.663h-23.874v23.874zM100.6 115.8H127V89.4h-26.4v26.4z"/><path d="M101.863 89.337h23.874V65.463h-23.874v23.874zM100.6 90.6H127V64.2h-26.4v26.4z"/><path d="M101.863 64.137h23.874V40.263h-23.874v23.874zM100.6 65.4H127V39h-26.4v26.4zM76.663 139.737h23.874v-23.874H76.663v23.874zM75.4 141h26.4v-26.4H75.4V141z"/><path d="M51.463 139.737h23.874v-23.874H51.463v23.874zM50.2 141h26.4v-26.4H50.2V141z"/><path d="M26.263 139.737h23.874v-23.874H26.263v23.874zM25 141h26.4v-26.4H25V141z"/></g></g></svg>