<svg width="195" height="141" viewBox="0 0 195 141" xmlns="http://www.w3.org/2000/svg"><g fill="#272C30" fill-rule="evenodd"><path d="M191 11.947l-84.738 57.25-67.246-29.794L191 11.947zm-90.373 125.857l6.267-67.583 84.31-56.96-90.577 124.543zm-62.1-97.3l67.157 29.753-6.29 67.838-60.867-97.59zM36 38.727L99.787 141 195 10 36 38.726z"/><path d="M123.805 1.56L56.121 47.448 2.409 23.567 123.805 1.561zM51.621 102.439l5.005-54.17 67.342-45.654-72.347 99.824zM2.018 24.45L55.66 48.298l-5.024 54.374L2.018 24.45zM0 23.025L50.95 105 127 0 0 23.025z"/></g></svg>